<svg width="92" height="144" viewBox="0 0 92 144" fill="none" xmlns="http://www.w3.org/2000/svg">
<path d="M42.144 25.832C36.32 23.592 30.816 22.472 25.632 22.472C20.512 22.472 16.512 23.56 13.632 25.736C10.752 27.912 9.312 30.92 9.312 34.76C9.312 39.432 11.744 43.048 16.608 45.608C18.784 46.696 21.152 47.72 23.712 48.68C26.336 49.576 28.96 50.6 31.584 51.752C34.208 52.904 36.608 54.216 38.784 55.688C40.96 57.16 42.72 59.208 44.064 61.832C45.408 64.392 46.08 67.688 46.08 71.72C46.08 75.688 44.96 79.08 42.72 81.896C40.48 84.712 37.76 86.632 34.56 87.656C31.424 88.616 27.744 89.096 23.52 89.096C15.648 89.096 8.928 87.144 3.36 83.24L3.84 82.472C5.952 84.136 8.672 85.512 12 86.6C15.392 87.624 18.848 88.136 22.368 88.136C27.552 88.136 31.968 86.952 35.616 84.584C39.328 82.152 41.184 78.6 41.184 73.928C41.184 68.808 38.752 64.808 33.888 61.928C31.712 60.648 29.312 59.464 26.688 58.376C24.128 57.288 21.536 56.168 18.912 55.016C16.288 53.8 13.888 52.456 11.712 50.984C6.848 47.784 4.416 43.24 4.416 37.352C4.416 32.68 5.984 28.904 9.12 26.024C12.256 23.08 16.96 21.608 23.232 21.608C29.568 21.608 36 22.696 42.528 24.872L42.144 25.832ZM80.5679 67.68C81.2975 68.4096 81.6623 69.3504 81.6623 70.5024C81.6623 71.4624 81.4511 72.4416 81.0287 73.44L66.2831 108L65.6495 108.288L51.1343 67.68H56.0303L68.0687 101.779L80.3375 73.44C80.7599 72.48 80.9711 71.4816 80.9711 70.4448C80.9711 69.408 80.6831 68.6016 80.1071 68.0256L80.5679 67.68Z" fill="white"/>
<g clip-path="url(#clip0_4_159)">
<path d="M9.37498 101.375V142.625M38.0061 113.668C36.9868 114.067 35.8923 114.146 34.9591 113.887C34.0278 113.631 33.3348 113.057 33.0341 112.293C32.7353 111.53 32.8508 110.639 33.3605 109.816C33.8683 108.991 34.7263 108.305 35.7438 107.905C36.7631 107.506 37.8576 107.425 38.7908 107.684C39.7221 107.94 40.4151 108.514 40.7158 109.278C41.0146 110.043 40.8991 110.934 40.3895 111.757C39.8816 112.58 39.0236 113.268 38.0061 113.668ZM26.9676 112.293C26.8191 112.672 26.5716 113.008 26.2416 113.281C25.9116 113.554 25.5046 113.761 25.0426 113.887C24.5806 114.016 24.0746 114.062 23.5521 114.023C23.0296 113.987 22.5016 113.864 21.9956 113.666C21.4915 113.468 21.024 113.198 20.6133 112.87C20.2026 112.542 19.8635 112.164 19.6123 111.757C19.3611 111.348 19.2035 110.921 19.1466 110.496C19.0893 110.085 19.1379 109.666 19.2878 109.278C19.4412 108.893 19.6904 108.553 20.012 108.29C20.3649 108.005 20.7741 107.799 21.2128 107.684C21.6983 107.553 22.2024 107.508 22.7033 107.548C23.2258 107.585 23.7538 107.707 24.258 107.905C24.7556 108.102 25.2219 108.37 25.6421 108.701C26.0363 109.012 26.3742 109.389 26.6413 109.814C26.8839 110.197 27.0426 110.627 27.107 111.075C27.162 111.501 27.1161 111.915 26.9676 112.293Z" stroke="url(#paint0_linear_4_159)" stroke-width="1.5" stroke-linecap="round" stroke-linejoin="round"/>
<path d="M15.8521 103.566C16.627 103.897 17.4754 104.018 18.3121 103.918C19.1487 103.818 19.9443 103.499 20.6188 102.994C21.8816 102.06 23.4241 101.583 24.9937 101.64C26.5632 101.698 28.0666 102.287 29.2575 103.311L30 103.949L30.7461 103.311C31.937 102.287 33.4404 101.698 35.01 101.64C36.5795 101.583 38.122 102.06 39.3848 102.994C40.0593 103.499 40.8549 103.818 41.6916 103.918C42.5282 104.018 43.3766 103.897 44.1515 103.566L50.625 101.375C50.664 103.723 50.5525 106.072 50.2913 108.406C49.9877 110.615 49.1411 112.714 47.8272 114.515C46.5133 116.317 44.7732 117.765 42.7627 118.729C40.7522 119.693 38.5339 120.143 36.3066 120.039C34.0793 119.936 31.9124 119.282 30 118.135C28.0876 119.281 25.9209 119.935 23.6938 120.039C21.4667 120.142 19.2488 119.691 17.2385 118.727C15.2282 117.763 13.4884 116.316 12.1746 114.515C10.8608 112.713 10.0142 110.615 9.71048 108.406C9.44648 106.072 9.33465 103.723 9.37498 101.375L15.8521 103.566Z" stroke="url(#paint1_linear_4_159)" stroke-width="1.5" stroke-linecap="round" stroke-linejoin="round"/>
</g>
<g clip-path="url(#clip1_4_159)">
<path d="M90.7183 57.7188V19.2812M64.0392 46.2644C64.9891 45.892 66.0089 45.8185 66.8785 46.0594C67.7463 46.2985 68.3921 46.8332 68.6722 47.5456C68.9507 48.2563 68.8431 49.0865 68.3681 49.8536C67.8949 50.6223 67.0954 51.2613 66.1473 51.6337C65.1975 52.0061 64.1776 52.0812 63.3081 51.8404C62.4402 51.6012 61.7945 51.0665 61.5143 50.3541C61.2359 49.6418 61.3435 48.8115 61.8184 48.0445C62.2916 47.2774 63.0911 46.6368 64.0392 46.2644ZM74.3251 47.5456C74.4635 47.192 74.6941 46.8794 75.0016 46.6248C75.3091 46.3703 75.6884 46.1773 76.1189 46.0594C76.5494 45.9398 77.0209 45.8971 77.5077 45.933C77.9946 45.9671 78.4866 46.0816 78.9581 46.2661C79.4279 46.4506 79.8635 46.7017 80.2462 47.0075C80.6289 47.3133 80.9449 47.6652 81.1789 48.0445C81.413 48.4254 81.5599 48.8235 81.6129 49.2198C81.6663 49.6029 81.621 49.9934 81.4813 50.3541C81.3384 50.7135 81.1061 51.0304 80.8065 51.2749C80.4777 51.5404 80.0963 51.7331 79.6876 51.8404C79.2352 51.9615 78.7655 52.0043 78.2987 51.9668C77.8118 51.9326 77.3198 51.8182 76.85 51.6337C76.3863 51.4506 75.9518 51.2008 75.5602 50.8923C75.193 50.6023 74.8781 50.2515 74.6292 49.8553C74.4032 49.4986 74.2553 49.098 74.1953 48.68C74.144 48.2836 74.1867 47.8975 74.3251 47.5456Z" stroke="url(#paint2_linear_4_159)" stroke-width="1.5" stroke-linecap="round" stroke-linejoin="round"/>
<path d="M84.6827 55.6773C83.9607 55.3687 83.1701 55.2555 82.3905 55.3491C81.6109 55.4426 80.8696 55.7396 80.241 56.2103C79.0644 57.0805 77.627 57.5252 76.1645 57.4715C74.702 57.4178 73.3011 56.8689 72.1914 55.9148L71.4995 55.3203L70.8042 55.9148C69.6945 56.8689 68.2936 57.4178 66.8311 57.4715C65.3686 57.5252 63.9312 57.0805 62.7545 56.2103C62.126 55.7396 61.3847 55.4426 60.6051 55.3491C59.8254 55.2555 59.0349 55.3687 58.3129 55.6773L52.2808 57.7188C52.2444 55.5305 52.3483 53.3422 52.5917 51.1673C52.8746 49.1089 53.6635 47.1529 54.8878 45.4742C56.112 43.7955 57.7335 42.4467 59.607 41.5484C61.4804 40.6501 63.5474 40.2304 65.6229 40.3268C67.6983 40.4233 69.7174 41.0329 71.4995 42.1012C73.2815 41.0333 75.3005 40.424 77.3757 40.3277C79.4509 40.2315 81.5176 40.6512 83.3909 41.5495C85.2641 42.4478 86.8853 43.7965 88.1095 45.475C89.3337 47.1534 90.1226 49.1092 90.4056 51.1673C90.6516 53.342 90.7558 55.5304 90.7183 57.7188L84.6827 55.6773Z" stroke="url(#paint3_linear_4_159)" stroke-width="1.5" stroke-linecap="round" stroke-linejoin="round"/>
</g>
<defs>
<linearGradient id="paint0_linear_4_159" x1="25.1267" y1="101.375" x2="25.1267" y2="142.625" gradientUnits="userSpaceOnUse">
<stop stop-color="#8F730E"/>
<stop offset="1" stop-color="#F5C518"/>
</linearGradient>
<linearGradient id="paint1_linear_4_159" x1="29.9998" y1="101.375" x2="29.9998" y2="120.054" gradientUnits="userSpaceOnUse">
<stop stop-color="#8F730E"/>
<stop offset="1" stop-color="#F5C518"/>
</linearGradient>
<linearGradient id="paint2_linear_4_159" x1="76.0405" y1="57.7188" x2="76.0405" y2="19.2812" gradientUnits="userSpaceOnUse">
<stop stop-color="#8F730E"/>
<stop offset="1" stop-color="#F5C518"/>
</linearGradient>
<linearGradient id="paint3_linear_4_159" x1="71.4997" y1="57.7188" x2="71.4997" y2="40.3133" gradientUnits="userSpaceOnUse">
<stop stop-color="#8F730E"/>
<stop offset="1" stop-color="#F5C518"/>
</linearGradient>
<clipPath id="clip0_4_159">
<rect width="44" height="44" fill="white" transform="matrix(-1 0 0 1 52 100)"/>
</clipPath>
<clipPath id="clip1_4_159">
<rect width="41" height="41" fill="white" transform="matrix(-1 0 0 1 92 18)"/>
</clipPath>
</defs>
</svg>
