<svg width="151" height="28" viewBox="0 0 151 28" fill="none" xmlns="http://www.w3.org/2000/svg">
<g clip-path="url(#clip0_4_140)">
<path d="M150.469 21.4688V5.53125M139.407 16.7194C139.8 16.565 140.223 16.5345 140.584 16.6344C140.944 16.7335 141.211 16.9553 141.328 17.2506C141.443 17.5453 141.398 17.8895 141.201 18.2076C141.005 18.5263 140.674 18.7913 140.281 18.9457C139.887 19.1001 139.464 19.1313 139.103 19.0314C138.744 18.9322 138.476 18.7105 138.36 18.4151C138.244 18.1198 138.289 17.7755 138.486 17.4575C138.682 17.1394 139.013 16.8738 139.407 16.7194ZM143.671 17.2506C143.729 17.104 143.824 16.9744 143.952 16.8688C144.079 16.7633 144.237 16.6833 144.415 16.6344C144.594 16.5848 144.789 16.5671 144.991 16.582C145.193 16.5961 145.397 16.6436 145.592 16.7201C145.787 16.7966 145.968 16.9007 146.126 17.0275C146.285 17.1543 146.416 17.3002 146.513 17.4575C146.61 17.6154 146.671 17.7805 146.693 17.9448C146.715 18.1037 146.697 18.2655 146.639 18.4151C146.579 18.5641 146.483 18.6955 146.359 18.7969C146.222 18.907 146.064 18.9869 145.895 19.0314C145.707 19.0816 145.513 19.0993 145.319 19.0838C145.117 19.0696 144.913 19.0222 144.718 18.9457C144.526 18.8698 144.346 18.7662 144.184 18.6383C144.031 18.518 143.901 18.3726 143.797 18.2083C143.704 18.0604 143.642 17.8943 143.618 17.721C143.596 17.5566 143.614 17.3965 143.671 17.2506Z" stroke="url(#paint0_linear_4_140)" stroke-linecap="round" stroke-linejoin="round"/>
<path d="M147.966 20.6223C147.667 20.4943 147.339 20.4474 147.016 20.4862C146.692 20.525 146.385 20.6481 146.124 20.8433C145.636 21.2041 145.04 21.3885 144.434 21.3662C143.828 21.344 143.247 21.1164 142.787 20.7208L142.5 20.4742L142.212 20.7208C141.751 21.1164 141.171 21.344 140.564 21.3662C139.958 21.3885 139.362 21.2041 138.874 20.8433C138.613 20.6481 138.306 20.525 137.983 20.4862C137.659 20.4474 137.332 20.4943 137.032 20.6223L134.531 21.4688C134.516 20.5614 134.559 19.6541 134.66 18.7523C134.777 17.8988 135.104 17.0878 135.612 16.3917C136.12 15.6957 136.792 15.1364 137.569 14.764C138.346 14.3915 139.203 14.2175 140.063 14.2575C140.924 14.2975 141.761 14.5502 142.5 14.9932C143.239 14.5504 144.076 14.2978 144.936 14.2578C145.797 14.2179 146.654 14.392 147.43 14.7644C148.207 15.1369 148.879 15.6961 149.387 16.3921C149.894 17.088 150.222 17.8989 150.339 18.7523C150.441 19.654 150.484 20.5614 150.469 21.4688L147.966 20.6223Z" stroke="url(#paint1_linear_4_140)" stroke-linecap="round" stroke-linejoin="round"/>
</g>
<g clip-path="url(#clip1_4_140)">
<path d="M0.53125 5.53125V21.4687M11.5933 10.2806C11.1995 10.435 10.7766 10.4655 10.416 10.3656C10.0562 10.2665 9.78846 10.0447 9.67229 9.74937C9.55683 9.45471 9.60146 9.11046 9.79838 8.79242C9.99458 8.47367 10.3261 8.20875 10.7192 8.05433C11.113 7.89992 11.5359 7.86875 11.8965 7.96862C12.2563 8.06779 12.524 8.2895 12.6402 8.58487C12.7557 8.88025 12.711 9.2245 12.5141 9.54254C12.3179 9.86058 11.9864 10.1262 11.5933 10.2806ZM7.32842 9.74937C7.27104 9.896 7.17542 10.0256 7.04792 10.1312C6.92042 10.2367 6.76317 10.3167 6.58467 10.3656C6.40617 10.4152 6.21067 10.4329 6.00879 10.418C5.80692 10.4039 5.60292 10.3564 5.40742 10.2799C5.21263 10.2034 5.032 10.0993 4.87333 9.9725C4.71467 9.84571 4.58363 9.69979 4.48658 9.54254C4.38954 9.38458 4.32863 9.21954 4.30667 9.05521C4.28451 8.89634 4.30328 8.73445 4.36121 8.58487C4.42046 8.43587 4.51676 8.30446 4.641 8.20308C4.77734 8.09302 4.93547 8.01311 5.10496 7.96862C5.29252 7.91839 5.48729 7.90067 5.68083 7.91621C5.88271 7.93038 6.08671 7.97783 6.2815 8.05433C6.47377 8.13025 6.65393 8.23381 6.81629 8.36175C6.96857 8.48199 7.09913 8.62741 7.20233 8.79171C7.29605 8.93962 7.35737 9.10571 7.38225 9.27904C7.4035 9.44337 7.38579 9.60346 7.32842 9.74937Z" stroke="url(#paint2_linear_4_140)" stroke-linecap="round" stroke-linejoin="round"/>
<path d="M3.03379 6.37771C3.33318 6.50566 3.66095 6.55259 3.98421 6.5138C4.30747 6.47501 4.61484 6.35186 4.87546 6.15671C5.36335 5.7959 5.95933 5.61151 6.56574 5.63378C7.17214 5.65604 7.753 5.88363 8.21312 6.27925L8.5 6.52575L8.78829 6.27925C9.24841 5.88363 9.82927 5.65604 10.4357 5.63378C11.0421 5.61151 11.6381 5.7959 12.126 6.15671C12.3866 6.35186 12.6939 6.47501 13.0172 6.5138C13.3405 6.55259 13.6682 6.50566 13.9676 6.37771L16.4687 5.53125C16.4838 6.43856 16.4408 7.3459 16.3398 8.24771C16.2225 9.10117 15.8954 9.91222 15.3878 10.6083C14.8802 11.3043 14.2079 11.8636 13.431 12.236C12.6542 12.6085 11.7972 12.7825 10.9367 12.7425C10.0761 12.7025 9.2389 12.4498 8.5 12.0068C7.76112 12.4496 6.92398 12.7022 6.06352 12.7422C5.20307 12.7821 4.34613 12.608 3.56943 12.2356C2.79274 11.8631 2.12051 11.3039 1.61292 10.6079C1.10533 9.912 0.778221 9.10106 0.660872 8.24771C0.558872 7.346 0.515664 6.43862 0.531247 5.53125L3.03379 6.37771Z" stroke="url(#paint3_linear_4_140)" stroke-linecap="round" stroke-linejoin="round"/>
</g>
<path d="M31.536 6.208C30.08 5.648 28.704 5.368 27.408 5.368C26.128 5.368 25.128 5.64 24.408 6.184C23.688 6.728 23.328 7.48 23.328 8.44C23.328 9.608 23.936 10.512 25.152 11.152C25.696 11.424 26.288 11.68 26.928 11.92C27.584 12.144 28.24 12.4 28.896 12.688C29.552 12.976 30.152 13.304 30.696 13.672C31.24 14.04 31.68 14.552 32.016 15.208C32.352 15.848 32.52 16.672 32.52 17.68C32.52 18.672 32.24 19.52 31.68 20.224C31.12 20.928 30.44 21.408 29.64 21.664C28.856 21.904 27.936 22.024 26.88 22.024C24.912 22.024 23.232 21.536 21.84 20.56L21.96 20.368C22.488 20.784 23.168 21.128 24 21.4C24.848 21.656 25.712 21.784 26.592 21.784C27.888 21.784 28.992 21.488 29.904 20.896C30.832 20.288 31.296 19.4 31.296 18.232C31.296 16.952 30.688 15.952 29.472 15.232C28.928 14.912 28.328 14.616 27.672 14.344C27.032 14.072 26.384 13.792 25.728 13.504C25.072 13.2 24.472 12.864 23.928 12.496C22.712 11.696 22.104 10.56 22.104 9.088C22.104 7.92 22.496 6.976 23.28 6.256C24.064 5.52 25.24 5.152 26.808 5.152C28.392 5.152 30 5.424 31.632 5.968L31.536 6.208ZM34.1916 10.192V10H34.6956V7.6H36.3756V10H40.0476V10.192H36.3756V18.928C36.3756 19.968 36.4876 20.72 36.7116 21.184C36.9516 21.648 37.4396 21.88 38.1756 21.88C38.9276 21.88 39.6876 21.728 40.4556 21.424L40.5276 21.616C39.7276 21.92 38.8076 22.072 37.7676 22.072C36.7436 22.072 35.9756 21.864 35.4636 21.448C34.9516 21.016 34.6956 20.168 34.6956 18.904V10.192H34.1916ZM51.7704 22C50.6824 22 49.9384 21.792 49.5384 21.376C49.1704 21.024 48.9864 20.72 48.9864 20.464V19.96C48.2024 21.384 46.9464 22.096 45.2184 22.096C43.2024 22.096 42.0584 21.184 41.7864 19.36C41.7544 19.168 41.7384 18.976 41.7384 18.784C41.7384 18.576 41.7704 18.352 41.8344 18.112C41.8984 17.872 42.0824 17.608 42.3864 17.32C42.9944 16.744 44.3304 16.392 46.3944 16.264C46.9064 16.216 47.3784 16.192 47.8104 16.192C48.2424 16.192 48.6344 16.208 48.9864 16.24V12.256C48.9544 12.24 48.9544 12.168 48.9864 12.04C49.0184 11.896 48.9864 11.72 48.8904 11.512C48.8104 11.288 48.6984 11.072 48.5544 10.864C48.4104 10.656 48.1544 10.48 47.7864 10.336C47.4184 10.176 46.9384 10.096 46.3464 10.096C45.7544 10.096 45.0584 10.208 44.2584 10.432C43.4744 10.64 42.8984 10.848 42.5304 11.056L42.4344 10.888C43.8584 10.232 45.3064 9.904 46.7784 9.904C48.4264 9.904 49.5144 10.2 50.0424 10.792C50.4584 11.256 50.6664 11.744 50.6664 12.256V20.296C50.6664 20.76 50.7544 21.12 50.9304 21.376C51.1224 21.616 51.3144 21.744 51.5064 21.76L51.7704 21.808H52.5144V22H51.7704ZM45.6024 21.904C46.4504 21.904 47.2104 21.616 47.8824 21.04C48.5704 20.448 48.9384 19.88 48.9864 19.336V16.432C48.5544 16.4 48.1144 16.384 47.6664 16.384C47.2344 16.384 46.8024 16.408 46.3704 16.456C45.1544 16.6 44.3624 16.872 43.9944 17.272C43.6264 17.672 43.4424 18.224 43.4424 18.928C43.4424 19.056 43.4504 19.2 43.4664 19.36C43.6104 21.056 44.3224 21.904 45.6024 21.904ZM53.715 16.432C53.715 14.352 54.219 12.744 55.227 11.608C56.235 10.472 57.747 9.904 59.763 9.904C61.251 9.904 62.763 10.168 64.299 10.696V22.288C64.283 26.096 62.619 28 59.307 28C57.483 28 55.923 27.408 54.627 26.224L54.795 26.08C56.171 27.232 57.675 27.808 59.307 27.808C61.515 27.808 62.619 25.968 62.619 22.288V19.912C62.315 20.472 61.811 20.968 61.107 21.4C60.403 21.832 59.571 22.048 58.611 22.048C55.347 21.968 53.715 20.096 53.715 16.432ZM58.635 21.856C59.707 21.856 60.627 21.568 61.395 20.992C62.163 20.416 62.571 19.848 62.619 19.288V10.816C61.467 10.336 60.491 10.096 59.691 10.096C58.267 10.096 57.195 10.656 56.475 11.776C55.755 12.88 55.395 14.432 55.395 16.432C55.395 20.048 56.475 21.856 58.635 21.856ZM67.7248 16.144C67.7248 18.128 68.0688 19.584 68.7568 20.512C69.4608 21.44 70.3808 21.904 71.5168 21.904C73.1168 21.904 74.5408 21.664 75.7888 21.184L75.8608 21.352C74.5808 21.848 73.1328 22.096 71.5168 22.096C69.9168 22.096 68.6128 21.616 67.6048 20.656C66.5968 19.696 66.0928 18.216 66.0928 16.216C66.0928 14.216 66.6208 12.664 67.6768 11.56C68.7328 10.456 70.0768 9.904 71.7088 9.904C73.0208 9.904 74.1248 10.296 75.0208 11.08C75.9168 11.864 76.3648 13.024 76.3648 14.56C76.3648 14.64 76.3648 14.72 76.3648 14.8H67.7968C67.7488 15.232 67.7248 15.68 67.7248 16.144ZM74.7328 14.608C74.7168 13.072 74.4208 11.936 73.8448 11.2C73.2688 10.464 72.5248 10.096 71.6128 10.096C70.7008 10.096 69.8848 10.496 69.1648 11.296C68.4608 12.096 68.0128 13.2 67.8208 14.608H74.7328ZM97.2653 5.2C97.5693 5.504 97.7213 5.896 97.7213 6.376C97.7213 6.776 97.6333 7.184 97.4573 7.6L91.3133 22L91.0493 22.12L85.0013 5.2H87.0413L92.0573 19.408L97.1693 7.6C97.3453 7.2 97.4333 6.784 97.4333 6.352C97.4333 5.92 97.3133 5.584 97.0733 5.344L97.2653 5.2ZM103.89 22.096C102.21 22.096 100.842 21.616 99.7862 20.656C98.7302 19.696 98.2022 18.216 98.2022 16.216C98.2022 14.216 98.7462 12.664 99.8342 11.56C100.938 10.456 102.33 9.904 104.01 9.904C105.706 9.904 107.082 10.384 108.138 11.344C109.194 12.304 109.722 13.784 109.722 15.784C109.722 17.784 109.17 19.336 108.066 20.44C106.978 21.544 105.586 22.096 103.89 22.096ZM104.058 10.096C102.842 10.096 101.834 10.64 101.034 11.728C100.234 12.8 99.8342 14.304 99.8342 16.24C99.8342 18.16 100.202 19.584 100.938 20.512C101.674 21.44 102.65 21.904 103.866 21.904C105.082 21.904 106.09 21.368 106.89 20.296C107.69 19.208 108.09 17.704 108.09 15.784C108.09 13.848 107.722 12.416 106.986 11.488C106.25 10.56 105.274 10.096 104.058 10.096ZM111.512 10.192V10H112.016V7.6H113.696V10H117.368V10.192H113.696V18.928C113.696 19.968 113.808 20.72 114.032 21.184C114.272 21.648 114.76 21.88 115.496 21.88C116.248 21.88 117.008 21.728 117.776 21.424L117.848 21.616C117.048 21.92 116.128 22.072 115.088 22.072C114.064 22.072 113.296 21.864 112.784 21.448C112.272 21.016 112.016 20.168 112.016 18.904V10.192H111.512ZM120.553 16.144C120.553 18.128 120.897 19.584 121.585 20.512C122.289 21.44 123.209 21.904 124.345 21.904C125.945 21.904 127.369 21.664 128.617 21.184L128.689 21.352C127.409 21.848 125.961 22.096 124.345 22.096C122.745 22.096 121.441 21.616 120.433 20.656C119.425 19.696 118.921 18.216 118.921 16.216C118.921 14.216 119.449 12.664 120.505 11.56C121.561 10.456 122.905 9.904 124.537 9.904C125.849 9.904 126.953 10.296 127.849 11.08C128.745 11.864 129.193 13.024 129.193 14.56C129.193 14.64 129.193 14.72 129.193 14.8H120.625C120.577 15.232 120.553 15.68 120.553 16.144ZM127.561 14.608C127.545 13.072 127.249 11.936 126.673 11.2C126.097 10.464 125.353 10.096 124.441 10.096C123.529 10.096 122.713 10.496 121.993 11.296C121.289 12.096 120.841 13.2 120.649 14.608H127.561Z" fill="white"/>
<defs>
<linearGradient id="paint0_linear_4_140" x1="144.383" y1="21.4688" x2="144.383" y2="5.53125" gradientUnits="userSpaceOnUse">
<stop stop-color="#8F730E"/>
<stop offset="1" stop-color="#F5C518"/>
</linearGradient>
<linearGradient id="paint1_linear_4_140" x1="142.5" y1="21.4688" x2="142.5" y2="14.2518" gradientUnits="userSpaceOnUse">
<stop stop-color="#8F730E"/>
<stop offset="1" stop-color="#F5C518"/>
</linearGradient>
<linearGradient id="paint2_linear_4_140" x1="6.61714" y1="5.53125" x2="6.61714" y2="21.4688" gradientUnits="userSpaceOnUse">
<stop stop-color="#8F730E"/>
<stop offset="1" stop-color="#F5C518"/>
</linearGradient>
<linearGradient id="paint3_linear_4_140" x1="8.49991" y1="5.53125" x2="8.49991" y2="12.7482" gradientUnits="userSpaceOnUse">
<stop stop-color="#8F730E"/>
<stop offset="1" stop-color="#F5C518"/>
</linearGradient>
<clipPath id="clip0_4_140">
<rect width="17" height="17" fill="white" transform="matrix(-1 0 0 1 151 5)"/>
</clipPath>
<clipPath id="clip1_4_140">
<rect width="17" height="17" fill="white" transform="matrix(-1 0 0 1 17 5)"/>
</clipPath>
</defs>
</svg>
